# Blender 4.2.3 LTS
# www.blender.org
mtllib BaseballBat.mtl
o Cube
v 0.091951 3.333975 -0.091951
v 0.084063 0.622984 -0.084063
v 0.091951 3.333975 0.091951
v 0.084063 0.622984 0.084063
v -0.091951 3.333975 -0.091951
v -0.084063 0.622984 -0.084063
v -0.091951 3.333975 0.091951
v -0.084063 0.622984 0.084063
v 0.142211 3.233620 -0.142211
v -0.142211 3.233620 0.142211
v 0.142211 3.233620 0.142211
v -0.142211 3.233620 -0.142211
v -0.107300 0.434412 -0.107300
v -0.107300 0.434412 0.107300
v 0.107300 0.434412 -0.107300
v 0.107300 0.434412 0.107300
v -0.147991 0.570747 -0.147991
v -0.147991 0.570747 0.147991
v 0.147991 0.570747 -0.147991
v 0.147991 0.570747 0.147991
v -0.147991 0.485154 -0.147991
v -0.147991 0.485154 0.147991
v 0.147991 0.485154 -0.147991
v 0.147991 0.485154 0.147991
v 0.144876 2.145831 -0.144876
v 0.144876 2.145831 0.144876
v -0.144876 2.145831 -0.144876
v -0.144876 2.145831 0.144876
vn -0.0000 1.0000 -0.0000
vn -0.0000 0.4478 0.8941
vn -0.8941 0.4478 -0.0000
vn 0.6328 0.7744 -0.0000
vn 0.8941 0.4478 -0.0000
vn -0.0000 0.4478 -0.8941
vn -0.0000 0.0025 -1.0000
vn 1.0000 0.0025 -0.0000
vn -1.0000 0.0025 -0.0000
vn -0.0000 0.0025 1.0000
vn -0.0000 -1.0000 -0.0000
vn -0.6328 0.7744 -0.0000
vn -0.0000 -0.6256 0.7801
vn -0.0000 0.7744 0.6328
vn -0.0000 -0.0000 1.0000
vn -1.0000 -0.0000 -0.0000
vn 1.0000 -0.0000 -0.0000
vn -0.0000 -0.0000 -1.0000
vn -0.7801 -0.6256 -0.0000
vn 0.7801 -0.6256 -0.0000
vn -0.0000 0.7744 -0.6328
vn -0.0000 -0.6256 -0.7801
vn -0.0000 -0.0399 0.9992
vn -0.9992 -0.0399 -0.0000
vn 0.9992 -0.0399 -0.0000
vn -0.0000 -0.0399 -0.9992
vt 0.625000 0.500000
vt 0.875000 0.500000
vt 0.875000 0.750000
vt 0.625000 0.750000
vt 0.572361 0.750000
vt 0.625000 1.000000
vt 0.572361 1.000000
vt 0.572361 0.000000
vt 0.625000 0.000000
vt 0.625000 0.250000
vt 0.572361 0.250000
vt 0.375000 0.500000
vt 0.375000 0.750000
vt 0.572361 0.500000
vt 0.490745 0.250000
vt 0.490745 0.500000
vt 0.490745 0.750000
vt 0.490745 0.000000
vt 0.490745 1.000000
vt 0.125000 0.500000
vt 0.125000 0.750000
vt 0.375000 0.000000
vt 0.375000 0.250000
vt 0.375000 1.000000
s 0
usemtl Material
f 1/1/1 5/2/1 7/3/1 3/4/1
f 11/5/2 3/4/2 7/6/2 10/7/2
f 10/8/3 7/9/3 5/10/3 12/11/3
f 2/12/4 4/13/4 20/13/4 19/12/4
f 9/14/5 1/1/5 3/4/5 11/5/5
f 12/11/6 5/10/6 1/1/6 9/14/6
f 27/15/7 12/11/7 9/14/7 25/16/7
f 25/16/8 9/14/8 11/5/8 26/17/8
f 28/18/9 10/8/9 12/11/9 27/15/9
f 26/17/10 11/5/10 10/7/10 28/19/10
f 13/20/11 15/12/11 16/13/11 14/21/11
f 8/22/12 6/23/12 17/23/12 18/22/12
f 14/21/13 16/13/13 24/13/13 22/21/13
f 4/13/14 8/24/14 18/24/14 20/13/14
f 20/13/15 18/24/15 22/24/15 24/13/15
f 18/22/16 17/23/16 21/23/16 22/22/16
f 19/12/17 20/13/17 24/13/17 23/12/17
f 17/23/18 19/12/18 23/12/18 21/23/18
f 13/20/19 14/21/19 22/21/19 21/20/19
f 16/13/20 15/12/20 23/12/20 24/13/20
f 6/23/21 2/12/21 19/12/21 17/23/21
f 15/12/22 13/20/22 21/20/22 23/12/22
f 4/13/23 26/17/23 28/19/23 8/24/23
f 8/22/24 28/18/24 27/15/24 6/23/24
f 2/12/25 25/16/25 26/17/25 4/13/25
f 6/23/26 27/15/26 25/16/26 2/12/26
